nColumns=19
nRows=101
DataType=double
version=3
OpenSimVersion=4.1
endheader
time	ground_force_calcn_r_vx	ground_force_calcn_r_vy	ground_force_calcn_r_vz	ground_force_calcn_r_px	ground_force_calcn_r_py	ground_force_calcn_r_pz	ground_force_calcn_r_mx	ground_force_calcn_r_my	ground_force_calcn_r_mz	ground_force_calcn_l_vx	ground_force_calcn_l_vy	ground_force_calcn_l_vz	ground_force_calcn_l_px	ground_force_calcn_l_py	ground_force_calcn_l_pz	ground_force_calcn_l_mx	ground_force_calcn_l_my	ground_force_calcn_l_mz
1.69	0	0	0	0	0	0	0	0	0	241.61	970.834	14.4169	0.58511	0	-0.395993	0.0865041	0.34759	0.00516174
1.7	0	0	0	0	0	0	0	0	0	232.066	737.212	2.54812	0.547322	0	-0.391521	-0.0209522	-0.0665597	-0.000230059
1.71	0	0	0	0	0	0	0	0	0	201.913	513.423	-2.01694	0.506609	0	-0.386507	0.427484	1.087	-0.00427018
1.72	0	0	0	0	0	0	0	0	0	162.363	313.097	-9.12728	0.447236	0	-0.379904	1.60309	3.09137	-0.0901185
1.73	0	0	0	0	0	0	0	0	0	113.924	155.682	-15.9031	0.331105	0	-0.368441	2.61159	3.56884	-0.364562
1.74	0	0	0	0	0	0	0	0	0	60.5112	63.2174	-15.7436	0.0216103	0	-0.33526	1.85071	1.93348	-0.481514
1.75	0	0	0	0	0	0	0	0	0	0	0	0	0	0	0	0	0	0
1.76	0	0	0	0	0	0	0	0	0	0	0	0	0	0	0	0	0	0
1.77	0	0	0	0	0	0	0	0	0	0	0	0	0	0	0	0	0	0
1.78	0	0	0	0	0	0	0	0	0	0	0	0	0	0	0	0	0	0
1.79	0	0	0	0	0	0	0	0	0	0	0	0	0	0	0	0	0	0
1.8	0	0	0	0	0	0	0	0	0	0	0	0	0	0	0	0	0	0
1.81	0	0	0	0	0	0	0	0	0	0	0	0	0	0	0	0	0	0
1.82	-33.0168	113.089	-10.2593	1.13366	0	-0.272639	1.02721	-3.51838	0.319183	0	0	0	0	0	0	0	0	0
1.83	-60.565	318.614	-31.6514	1.05725	0	-0.311651	0.555124	-2.92034	0.290109	0	0	0	0	0	0	0	0	0
1.84	-93.2136	690.061	-27.4187	1.04188	0	-0.315426	-0.0559271	0.414029	-0.0164509	0	0	0	0	0	0	0	0	0
1.85	-142.369	1097.95	20.0057	1.03191	0	-0.315435	-0.565801	4.36347	0.0795066	0	0	0	0	0	0	0	0	0
1.86	-204.761	1332.91	70.9856	1.02153	0	-0.314619	-0.934847	6.08544	0.324088	0	0	0	0	0	0	0	0	0
1.87	-257.618	1394.16	47.0806	1.00631	0	-0.313063	-0.885719	4.79328	0.161868	0	0	0	0	0	0	0	0	0
1.88	-279.274	1428.93	-34.6593	0.981752	0	-0.310262	-0.367864	1.88221	-0.0456538	0	0	0	0	0	0	0	0	0
1.89	-257.554	1504.09	-65.9055	0.947174	0	-0.306366	0.127934	-0.747118	0.0327369	0	0	0	0	0	0	0	0	0
1.9	-208.74	1589.61	-45.5483	0.907449	0	-0.302464	0.29304	-2.23158	0.063943	0	0	0	0	0	0	0	0	0
1.91	-142.997	1633.99	-59.719	0.867168	0	-0.299719	0.248447	-2.83894	0.103757	0	0	0	0	0	0	0	0	0
1.92	-72.0762	1622.51	-101.753	0.826829	0	-0.298456	0.143158	-3.22262	0.202102	0	0	0	0	0	0	0	0	0
1.93	-1.20122	1566.99	-95.0676	0.784598	0	-0.298317	0.00290688	-3.792	0.230057	0	0	0	0	0	0	0	0	0
1.94	74.4793	1465.99	-49.8945	0.739336	0	-0.298985	-0.232789	-4.58203	0.155948	0	0	0	0	0	0	0	0	0
1.95	148.583	1311.64	-29.2484	0.692119	0	-0.300341	-0.607652	-5.36415	0.119615	0	0	0	0	0	0	0	0	0
1.96	197.764	1110.3	-24.6306	0.645974	0	-0.302074	-1.02092	-5.73166	0.12715	0	0	0	0	0	0	0	0	0
1.97	208.603	880.177	-3.99121	0.603936	0	-0.30352	-1.22988	-5.18935	0.0235314	0	0	0	0	0	0	0	0	0
1.98	188.565	643.734	17.9804	0.566227	0	-0.303962	-1.08612	-3.70786	-0.103566	0	0	0	0	0	0	0	0	0
1.99	152.01	420.473	23.7596	0.527908	0	-0.303335	-0.915136	-2.53134	-0.143038	0	0	0	0	0	0	0	0	0
2	111.434	231.049	15.9411	0.475046	0	-0.304152	-1.61177	-3.34187	-0.23057	0	0	0	0	0	0	0	0	0
2.01	69.0118	101.709	1.63501	0.354754	0	-0.312512	-3.56925	-5.26036	-0.0845617	0	0	0	0	0	0	0	0	0
2.02	0	0	0	0	0	0	0	0	0	0	0	0	0	0	0	0	0	0
2.03	0	0	0	0	0	0	0	0	0	0	0	0	0	0	0	0	0	0
2.04	0	0	0	0	0	0	0	0	0	0	0	0	0	0	0	0	0	0
2.05	0	0	0	0	0	0	0	0	0	0	0	0	0	0	0	0	0	0
2.06	0	0	0	0	0	0	0	0	0	0	0	0	0	0	0	0	0	0
2.07	0	0	0	0	0	0	0	0	0	0	0	0	0	0	0	0	0	0
2.08	0	0	0	0	0	0	0	0	0	0	0	0	0	0	0	0	0	0
2.09	0	0	0	0	0	0	0	0	0	0	0	0	0	0	0	0	0	0
2.1	0	0	0	0	0	0	0	0	0	0	0	0	0	0	0	0	0	0
2.11	0	0	0	0	0	0	0	0	0	-20.9741	106.665	-11.8872	1.04318	0	-0.398592	0.0839577	-0.426972	0.0475835
2.12	0	0	0	0	0	0	0	0	0	-29.8564	276.052	-11.9701	1.05028	0	-0.392638	0.218224	-2.0177	0.0874909
2.13	0	0	0	0	0	0	0	0	0	-46.3372	544.899	2.16838	1.05205	0	-0.39084	0.0822957	-0.96775	-0.00385109
2.14	0	0	0	0	0	0	0	0	0	-95.327	826.282	26.4351	1.05105	0	-0.39084	-0.13105	1.13592	0.0363414
2.15	0	0	0	0	0	0	0	0	0	-171.98	1010.4	40.5088	1.04545	0	-0.392589	-0.346313	2.03463	0.0815716
2.16	0	0	0	0	0	0	0	0	0	-241.19	1113.69	24.838	1.03086	0	-0.395373	-0.259554	1.19849	0.0267291
2.17	0	0	0	0	0	0	0	0	0	-275.751	1233.93	10.5983	1.00408	0	-0.398005	0.0622478	-0.278547	-0.00239245
2.18	0	0	0	0	0	0	0	0	0	-265.047	1398.53	42.3223	0.967527	0	-0.399745	0.230809	-1.21787	-0.0368551
2.19	0	0	0	0	0	0	0	0	0	-220.825	1554.42	88.9225	0.926699	0	-0.400825	0.171252	-1.20547	-0.0689602
2.2	0	0	0	0	0	0	0	0	0	-153.622	1648.57	98.4772	0.884602	0	-0.401832	0.045468	-0.487934	-0.0291467
2.21	0	0	0	0	0	0	0	0	0	-72.0079	1671.86	82.4945	0.841226	0	-0.402784	-0.022943	0.532685	0.0262842
2.22	0	0	0	0	0	0	0	0	0	14.2945	1635.34	81.3128	0.796035	0	-0.403136	0.0133965	1.5326	0.0762043
2.23	0	0	0	0	0	0	0	0	0	96.4134	1541.99	88.0575	0.749628	0	-0.402377	0.14141	2.26164	0.129155
2.24	0	0	0	0	0	0	0	0	0	168.718	1388.68	72.1446	0.703702	0	-0.400328	0.307118	2.52781	0.131325
2.25	0	0	0	0	0	0	0	0	0	220.151	1183.4	36.6824	0.66013	0	-0.397087	0.417999	2.24691	0.0696486
2.26	0	0	0	0	0	0	0	0	0	239.619	947.952	8.92341	0.619767	0	-0.392866	0.424734	1.68028	0.0158171
2.27	0	0	0	0	0	0	0	0	0	226.687	706.3	-1.23453	0.581123	0	-0.387873	0.494003	1.53919	-0.00269032
2.28	0	0	0	0	0	0	0	0	0	193.65	477.926	-5.94428	0.538648	0	-0.382045	0.945939	2.33457	-0.0290365
2.29	0	0	0	0	0	0	0	0	0	151.2	279.636	-13.3385	0.479162	0	-0.37427	1.80101	3.33085	-0.158881
2.3	0	0	0	0	0	0	0	0	0	100.91	132.538	-18.9703	0.367209	0	-0.360889	2.21526	2.90957	-0.41645
2.31	0	0	0	0	0	0	0	0	0	49.5282	52.3899	-13.9478	-0.0374568	0	-0.300472	1.17027	1.23788	-0.329564
2.32	0	0	0	0	0	0	0	0	0	0	0	0	0	0	0	0	0	0
2.33	0	0	0	0	0	0	0	0	0	0	0	0	0	0	0	0	0	0
2.34	0	0	0	0	0	0	0	0	0	0	0	0	0	0	0	0	0	0
2.35	0	0	0	0	0	0	0	0	0	0	0	0	0	0	0	0	0	0
2.36	0	0	0	0	0	0	0	0	0	0	0	0	0	0	0	0	0	0
2.37	0	0	0	0	0	0	0	0	0	0	0	0	0	0	0	0	0	0
2.38	0	0	0	0	0	0	0	0	0	0	0	0	0	0	0	0	0	0
2.39	-21.668	68.0721	-7.34157	2.4369	0	0.188994	0.163824	-0.514668	0.0555069	0	0	0	0	0	0	0	0	0
2.4	-39.0738	201.64	-22.7019	1.09212	0	-0.301576	0.203121	-1.0482	0.118013	0	0	0	0	0	0	0	0	0
2.41	-59.3538	472.06	-24.7968	1.07577	0	-0.304345	0.00813962	-0.0647369	0.00340056	0	0	0	0	0	0	0	0	0
2.42	-91.4362	827.627	-0.971852	1.06752	0	-0.303709	-0.224514	2.03217	-0.0023863	0	0	0	0	0	0	0	0	0
2.43	-150.396	1110.44	37.0202	1.05827	0	-0.30243	-0.450298	3.32475	0.110842	0	0	0	0	0	0	0	0	0
2.44	-216.616	1243.24	37.8758	1.04386	0	-0.300598	-0.465915	2.67405	0.0814661	0	0	0	0	0	0	0	0	0
2.45	-254.553	1318.33	-18.5969	1.02037	0	-0.297803	-0.127818	0.661973	-0.00933802	0	0	0	0	0	0	0	0	0
2.46	-242.55	1418.6	-62.2375	0.986997	0	-0.294068	0.243011	-1.4213	0.0623558	0	0	0	0	0	0	0	0	0
2.47	-198.1	1534.44	-55.1655	0.9478	0	-0.290076	0.372105	-2.88223	0.103621	0	0	0	0	0	0	0	0	0
2.48	-141.208	1616.05	-54.0342	0.907229	0	-0.286708	0.335588	-3.84061	0.128415	0	0	0	0	0	0	0	0	0
2.49	-76.9391	1637.54	-86.4355	0.866277	0	-0.284432	0.2177	-4.63345	0.24457	0	0	0	0	0	0	0	0	0
2.5	-7.06869	1608.12	-101.687	0.823837	0	-0.283154	0.0235403	-5.3554	0.338641	0	0	0	0	0	0	0	0	0
2.51	68.7828	1537.34	-77.323	0.779364	0	-0.282649	-0.268406	-5.99905	0.301731	0	0	0	0	0	0	0	0	0
2.52	142.818	1417.23	-53.6483	0.733794	0	-0.282839	-0.6685	-6.63372	0.251115	0	0	0	0	0	0	0	0	0
2.53	199.556	1245.45	-45.1131	0.688962	0	-0.283671	-1.16527	-7.27256	0.263429	0	0	0	0	0	0	0	0	0
2.54	228.103	1034.58	-29.3152	0.64638	0	-0.284916	-1.66517	-7.5525	0.214003	0	0	0	0	0	0	0	0	0
2.55	226.974	801.197	-5.71483	0.606034	0	-0.286142	-1.9321	-6.82012	0.048647	0	0	0	0	0	0	0	0	0
2.56	200.13	566.951	9.41956	0.565683	0	-0.286671	-1.73	-4.90095	-0.0814265	0	0	0	0	0	0	0	0	0
2.57	158.608	355.322	10.551	0.519969	0	-0.285495	-1.20902	-2.70852	-0.080427	0	0	0	0	0	0	0	0	0
2.58	110.989	186.896	1.52766	0.456042	0	-0.280055	-0.906532	-1.52652	-0.0124776	0	0	0	0	0	0	0	0	0
2.59	62.5356	80.0557	-5.57904	0.320092	0	-0.245504	-1.10872	-1.41934	0.0989133	0	0	0	0	0	0	0	0	0
2.6	0	0	0	0	0	0	0	0	0	0	0	0	0	0	0	0	0	0
2.61	0	0	0	0	0	0	0	0	0	0	0	0	0	0	0	0	0	0
2.62	0	0	0	0	0	0	0	0	0	0	0	0	0	0	0	0	0	0
2.63	0	0	0	0	0	0	0	0	0	0	0	0	0	0	0	0	0	0
2.64	0	0	0	0	0	0	0	0	0	0	0	0	0	0	0	0	0	0
2.65	0	0	0	0	0	0	0	0	0	0	0	0	0	0	0	0	0	0
2.66	0	0	0	0	0	0	0	0	0	0	0	0	0	0	0	0	0	0
2.67	0	0	0	0	0	0	0	0	0	0	0	0	0	0	0	0	0	0
2.68	0	0	0	0	0	0	0	0	0	-17.0825	50.9276	-9.94726	0.949607	0	-0.393558	-0.480746	1.43323	-0.279941
2.69	0	0	0	0	0	0	0	0	0	-38.4371	158.708	-18.6195	1.1093	0	-0.379654	0.447874	-1.84928	0.216957
